<?xml version="1.0" standalone="no"?><!DOCTYPE svg PUBLIC "-//W3C//DTD SVG 1.1//EN" "http://www.w3.org/Graphics/SVG/1.1/DTD/svg11.dtd"><svg t="1590124867481" class="icon" viewBox="0 0 1024 1024" version="1.1" xmlns="http://www.w3.org/2000/svg" p-id="1823" xmlns:xlink="http://www.w3.org/1999/xlink" width="64" height="64"><defs><style type="text/css"></style></defs><path d="M965.736727 0c14.836364 0 28.264727 5.527273 40.238546 16.686545C1017.949091 27.752727 1024 40.750545 1024 55.505455v910.219636c0 14.859636-6.050909 27.752727-18.024727 38.818909-12.078545 11.159273-25.495273 16.686545-40.238546 16.686545H704.919273V627.2h133.224727L857.6 471.761455H705.024v-101.480728c0-50.688 25.914182-76.090182 77.730909-76.090182h80.488727V160.768c-27.752727-5.422545-67.490909-8.192-119.307636-8.192-59.182545 0-106.798545 18.024727-142.941091 54.062545-36.247273 36.142545-54.272 86.621091-54.272 151.342546v113.768727H413.498182V627.2h133.213091v394.018909H55.505455c-14.836364 0-27.752727-5.527273-38.81891-16.686545C5.527273 993.477818 0 980.596364 0 965.725091V55.505455c0-14.754909 5.527273-27.752727 16.686545-38.81891C27.752727 5.632 40.750545 0 55.505455 0h910.231272z m0 0" p-id="1824" fill="#ffffff"></path></svg>