<?xml version="1.0" standalone="no"?><!DOCTYPE svg PUBLIC "-//W3C//DTD SVG 1.1//EN" "http://www.w3.org/Graphics/SVG/1.1/DTD/svg11.dtd"><svg t="1589801395254" class="icon" viewBox="0 0 1024 1024" version="1.1" xmlns="http://www.w3.org/2000/svg" p-id="1801" xmlns:xlink="http://www.w3.org/1999/xlink" width="64" height="64"><defs><style type="text/css"></style></defs><path d="M512 512m-512 0a512 512 0 1 0 1024 0 512 512 0 1 0-1024 0Z" fill="#999999" p-id="1802"></path><path d="M502.1184 844.8c12.6976 0 23.04-10.752 23.04-23.936v-382.464l152.2944 159.4368a22.4256 22.4256 0 0 0 32.5376 0.1024 24.2176 24.2176 0 0 0 6.8096-16.896 24.2432 24.2432 0 0 0-6.7072-16.9472l-189.3632-198.2208a22.4512 22.4512 0 0 0-16.3328-7.04H504.32c-0.128 0-0.3328-0.0768-0.512-0.128a5.5808 5.5808 0 0 0-1.6896-0.3072 22.0928 22.0928 0 0 0-9.3184 2.1248 22.5536 22.5536 0 0 0-7.9616 5.3248l-170.88 177.3824a24.2432 24.2432 0 0 0-6.7584 16.9216c0 6.4 2.3808 12.416 6.7328 16.9216a22.4 22.4 0 0 0 32.5888 0.0512l132.5824-137.6512v381.3888c0 13.184 10.3168 23.936 23.0144 23.936zM279.1168 332.8h465.7664c12.7488 0 23.1168-11.4944 23.1168-25.6 0-14.1056-10.368-25.6-23.1168-25.6H279.1168c-12.7488 0-23.1168 11.4944-23.1168 25.6 0 14.1056 10.368 25.6 23.1168 25.6z" fill="#FFFFFF" p-id="1803"></path></svg>